<?xml version="1.0" encoding="UTF-8" standalone="no"?><!DOCTYPE svg PUBLIC "-//W3C//DTD SVG 1.1//EN" "http://www.w3.org/Graphics/SVG/1.1/DTD/svg11.dtd"><svg width="100%" height="100%" viewBox="0 0 2048 2048" version="1.1" xmlns="http://www.w3.org/2000/svg" xmlns:xlink="http://www.w3.org/1999/xlink" xml:space="preserve" xmlns:serif="http://www.serif.com/" style="fill-rule:evenodd;clip-rule:evenodd;stroke-linecap:round;stroke-linejoin:bevel;stroke-miterlimit:1.41421;"><path d="M889.901,890.052c84.428,-42.192 183.789,-42.192 268.217,0c157.18,78.549 421.549,210.665 621.396,310.536c50.833,25.403 82.946,77.351 82.946,134.178c0,56.827 -32.113,108.775 -82.946,134.178c-199.847,99.872 -464.216,231.987 -621.396,310.537c-84.428,42.192 -183.789,42.192 -268.217,0c-157.18,-78.55 -421.549,-210.665 -621.396,-310.537c-50.833,-25.403 -82.946,-77.351 -82.946,-134.178c0,-56.827 32.113,-108.775 82.946,-134.178c199.847,-99.871 464.216,-231.987 621.396,-310.536Z" style="fill:#00b5ad;fill-opacity:0.054902;stroke:#00b5ad;stroke-width:75px;"/><path d="M889.901,268.519c84.428,-42.192 183.789,-42.192 268.217,0c157.18,78.55 421.549,210.665 621.396,310.537c50.833,25.403 82.946,77.351 82.946,134.178c0,56.827 -32.113,108.775 -82.946,134.178c-199.847,99.871 -464.216,231.987 -621.396,310.536c-84.428,42.192 -183.789,42.192 -268.217,0c-157.18,-78.549 -421.549,-210.665 -621.396,-310.536c-50.833,-25.403 -82.946,-77.351 -82.946,-134.178c0,-56.827 32.113,-108.775 82.946,-134.178c199.847,-99.872 464.216,-231.987 621.396,-310.537Z" style="fill:#00b5ad;fill-opacity:0.0509804;stroke:#00b5ad;stroke-width:75px;"/><path d="M1445.57,978.774c27.345,13.665 44.619,41.609 44.619,72.178c0,30.569 -17.274,58.513 -44.619,72.178c-204.533,102.214 -574.579,287.141 -762.808,381.206c-25.013,12.5 -54.714,11.159 -78.499,-3.544c-23.784,-14.703 -38.261,-40.672 -38.261,-68.634c0,-196.448 0,-565.964 0,-762.412c0,-27.962 14.477,-53.931 38.261,-68.634c23.785,-14.703 53.486,-16.044 78.499,-3.544c188.229,94.065 558.275,278.992 762.808,381.206Z" style="fill:#ff3d45;stroke:#ff3d45;stroke-width:70px;stroke-linecap:butt;stroke-linejoin:round;stroke-miterlimit:1.5;"/></svg>